<svg width="56" height="70" viewBox="0 0 56 70" fill="none" xmlns="http://www.w3.org/2000/svg">
<path d="M55.5 27.5375C55.5 34.9774 51.1082 43.8551 45.3871 51.7345C39.787 59.4471 32.9893 66.0999 28.0236 69.3874C23.7645 66.0807 16.9698 59.4253 11.1915 51.7281C5.26898 43.8388 0.5 34.9667 0.5 27.5375C0.5 12.6129 12.8043 0.5 28 0.5C43.1957 0.5 55.5 12.6129 55.5 27.5375Z" fill="white" stroke="#BF75CF"/>
<path d="M33.5269 34.7434H24.5913L22.5845 40.3098H19.6841L27.8286 18.9817H30.2896L38.4487 40.3098H35.563L33.5269 34.7434ZM25.4409 32.429H32.6919L29.0591 22.4534L25.4409 32.429Z" fill="#BF75CF"/>
</svg>
