<svg width="56" height="70" viewBox="0 0 56 70" fill="none" xmlns="http://www.w3.org/2000/svg">
<path d="M55.5 27.5375C55.5 34.9774 51.1082 43.8551 45.3871 51.7345C39.787 59.4471 32.9893 66.0999 28.0236 69.3874C23.7645 66.0807 16.9698 59.4253 11.1915 51.7281C5.26898 43.8388 0.5 34.9667 0.5 27.5375C0.5 12.6129 12.8043 0.5 28 0.5C43.1957 0.5 55.5 12.6129 55.5 27.5375Z" fill="white" stroke="#BF75CF"/>
<path d="M20.7495 41.3098V19.9817H26.77C28.6255 19.9817 30.2661 20.3918 31.6919 21.2122C33.1177 22.0325 34.2163 23.1995 34.9878 24.7131C35.769 26.2268 36.1646 27.9651 36.1743 29.928V31.2903C36.1743 33.302 35.7837 35.0647 35.0024 36.5784C34.231 38.092 33.1226 39.2542 31.6772 40.0647C30.2417 40.8752 28.5669 41.2903 26.6528 41.3098H20.7495ZM23.562 22.2961V39.01H26.521C28.689 39.01 30.3735 38.3362 31.5747 36.9885C32.7856 35.6409 33.3911 33.7219 33.3911 31.2317V29.9866C33.3911 27.5647 32.8198 25.6848 31.6772 24.3469C30.5444 22.9993 28.9331 22.3157 26.8433 22.2961H23.562Z" fill="#BF75CF"/>
</svg>
