<svg width="56" height="70" viewBox="0 0 56 70" fill="none" xmlns="http://www.w3.org/2000/svg">
<path d="M55.5 27.5375C55.5 34.9774 51.1082 43.8551 45.3871 51.7345C39.787 59.4471 32.9893 66.0999 28.0236 69.3874C23.7645 66.0807 16.9698 59.4253 11.1915 51.7281C5.26898 43.8388 0.5 34.9667 0.5 27.5375C0.5 12.6129 12.8043 0.5 28 0.5C43.1957 0.5 55.5 12.6129 55.5 27.5375Z" fill="white" stroke="#BF75CF"/>
<path d="M36.1558 31.3342C36.1558 33.4241 35.8042 35.2502 35.1011 36.8127C34.3979 38.3655 33.4019 39.552 32.1128 40.3723C30.8237 41.1926 29.3198 41.6028 27.6011 41.6028C25.9214 41.6028 24.4321 41.1926 23.1333 40.3723C21.8345 39.5422 20.8237 38.3655 20.1011 36.842C19.3882 35.3088 19.022 33.5364 19.0024 31.5247V29.9866C19.0024 27.9358 19.3589 26.1243 20.0718 24.552C20.7847 22.9797 21.7905 21.7786 23.0894 20.9485C24.3979 20.1086 25.8921 19.6887 27.5718 19.6887C29.2808 19.6887 30.7847 20.1038 32.0835 20.9338C33.3921 21.7542 34.3979 22.9504 35.1011 24.5227C35.8042 26.0852 36.1558 27.9065 36.1558 29.9866V31.3342ZM33.3579 29.9573C33.3579 27.428 32.8501 25.4895 31.8345 24.1418C30.8188 22.7844 29.3979 22.1057 27.5718 22.1057C25.7944 22.1057 24.3931 22.7844 23.3677 24.1418C22.3521 25.4895 21.8296 27.3645 21.8003 29.7668V31.3342C21.8003 33.7854 22.313 35.7141 23.3384 37.1204C24.3735 38.5168 25.7944 39.2151 27.6011 39.2151C29.4175 39.2151 30.8237 38.5559 31.8198 37.2375C32.8159 35.9094 33.3286 34.01 33.3579 31.5393V29.9573Z" fill="#BF75CF"/>
</svg>
