<svg width="56" height="70" viewBox="0 0 56 70" fill="none" xmlns="http://www.w3.org/2000/svg">
<path d="M55.5 27.5375C55.5 34.9774 51.1082 43.8551 45.3871 51.7345C39.787 59.4471 32.9893 66.0999 28.0236 69.3874C23.7645 66.0807 16.9698 59.4253 11.1915 51.7281C5.26898 43.8388 0.5 34.9667 0.5 27.5375C0.5 12.6129 12.8043 0.5 28 0.5C43.1957 0.5 55.5 12.6129 55.5 27.5375Z" fill="white" stroke="#BF75CF"/>
<path d="M28.5718 30.6819H23.562V39.3098H20.7349V17.9817H27.7954C30.1978 17.9817 32.0435 18.5286 33.3325 19.6223C34.6313 20.7161 35.2808 22.3079 35.2808 24.3977C35.2808 25.7258 34.9194 26.8831 34.1968 27.8694C33.4839 28.8557 32.4878 29.593 31.2085 30.0813L36.2183 39.134V39.3098H33.2007L28.5718 30.6819ZM23.562 28.3821H27.8833C29.2798 28.3821 30.3882 28.0208 31.2085 27.2981C32.0386 26.5754 32.4536 25.6086 32.4536 24.3977C32.4536 23.0793 32.0581 22.0686 31.2671 21.3655C30.4858 20.6624 29.353 20.3059 27.8687 20.2961H23.562V28.3821Z" fill="#BF75CF"/>
</svg>
