<svg width="56" height="70" viewBox="0 0 56 70" fill="none" xmlns="http://www.w3.org/2000/svg">
<path d="M55.5 27.5375C55.5 34.9774 51.1082 43.8551 45.3871 51.7345C39.787 59.4471 32.9893 66.0999 28.0236 69.3874C23.7645 66.0807 16.9698 59.4253 11.1915 51.7281C5.26898 43.8388 0.5 34.9667 0.5 27.5375C0.5 12.6129 12.8043 0.5 28 0.5C43.1957 0.5 55.5 12.6129 55.5 27.5375Z" fill="white" stroke="#BF75CF"/>
<path d="M22.3491 34.5862L22.7593 37.3987L23.3599 34.8645L27.5786 19.9817H29.9517L34.0679 34.8645L34.6538 37.4426L35.1079 34.5715L38.4185 19.9817H41.2456L36.0747 41.3098H33.5112L29.1167 25.7678L28.7798 24.1418L28.4429 25.7678L23.8872 41.3098H21.3237L16.1675 19.9817H18.98L22.3491 34.5862Z" fill="#BF75CF"/>
</svg>
